<svg id="Layer_1" data-name="Layer 1" xmlns="http://www.w3.org/2000/svg" viewBox="0 0 500 500"><defs><style>.cls-1{fill:#67cc33;}.cls-2{fill:#fff;}</style></defs><rect class="cls-1" width="500" height="500"/><g id="Layer_2" data-name="Layer 2"><g id="Layer_1-2" data-name="Layer 1-2"><path class="cls-2" d="M355.91,195.83c-.58-2.16-1.3-4.33-2-6.35a114.94,114.94,0,0,0-29.75-45.34c-.58,1.15-1.73,3.61-3.18,7.22a47.7,47.7,0,0,1-3.61,7.22c-3,5-7.79,8.08-14.44,8.95-6.06-19.06-11.69-32.35-16.75-39.85-9.09-13-21.8-21.38-38.41-25.13a72.93,72.93,0,0,0-32.2,27.58c-5.2,7.8-11.12,20.22-17.76,37.4-5.92-.72-10.4-4-13.29-10-3.61-7.8-6.2-12.28-7.65-13.58A125.46,125.46,0,0,0,149,189.48c-1.3,3.75-2.45,7.65-3.46,11.55a50.5,50.5,0,0,0-7.37-4.91S81.4,158.58,18.3,207.82c0,0,39.71,71.62,92.56,60.07a92.61,92.61,0,0,0,7.08,21.37c11.26,23.83,30.46,40.14,57.32,49.1.29.14.58,0,.58-.29v-.44c-9-12.7-12.71-28.88-11.55-48.37,1.44-21.23,9.1-34.08,22.81-38.7-1.15,12.71,2.46,21.23,10.55,25.27,8.51-3.32,12.41-10,11.69-20.07-1-16-1.3-24.41-1.15-25.13,4.62-17.76,19.49-30.47,44.62-37.83,17.76,4.33,29.89,15.16,36.24,32.78a163,163,0,0,1,6.35,24.69q4.13,22.53,4.77,25.56c7.36-.29,11.84-3.75,13.72-10.4,3.32-11.26,4.91-16.89,4.76-16.6,12.13,10.11,18.63,24.55,19.5,43.46.72,17.62-3.61,32.64-13,45.2-.14.29-.14.72.14.87a.9.9,0,0,0,.58.14q40.29-11.91,57.47-46.93a92.59,92.59,0,0,0,7.51-22.38c48.81,2.89,84.33-61.23,84.33-61.23C415.55,161.47,361.68,192.37,355.91,195.83Z"/><path class="cls-2" d="M210.64,285.07c-3.61-.72-7.22.29-10.83,1.73-8.23,3-16.75,8.09-21.37,19.35l1.59.29c7.36,11,16.89,18.05,26.86,20.07,9.24,1.88,19.35-1.15,26.13-11.26l1.16.15c-.29-7.8-4.33-13.72-8.38-18.49C221.33,291.28,216.27,286.08,210.64,285.07Zm8.52,26.43a3.27,3.27,0,0,1-.72.43c-.29.14-.43.43-.72.58a4.65,4.65,0,0,1-4.91.43,5,5,0,0,1-1.59-1.44c-.15-.29-.29-.44-.43-.72a9.91,9.91,0,0,1-1-6.07c.73-4,3.76-5.34,6.36-6.06l-.58-2.17,4,5.78a8.15,8.15,0,0,1,1.88,4.76,7.53,7.53,0,0,1-2.31,4.48Z"/><path class="cls-2" d="M304.07,286.66c-3.61-1.3-7.22-2.31-10.83-1.73-5.63,1-10.54,6.21-15,11.69-3.9,4.62-7.94,10.69-8.37,18.49L271,315c6.79,10.11,16.9,13.14,26.14,11.27,10-2,19.49-9.1,26.86-20.08l1.58-.28C320.82,294.75,312.15,289.69,304.07,286.66Zm-11,24.12c-.14.28-.29.43-.43.72a5,5,0,0,1-1.59,1.44,4.65,4.65,0,0,1-4.91-.43,3.11,3.11,0,0,1-.72-.58,2.92,2.92,0,0,0-.72-.43,6.09,6.09,0,0,1-2.17-4.48,8.55,8.55,0,0,1,1.88-4.76l4-5.78-.57,2.17c2.59.72,5.63,2,6.35,6.06a10,10,0,0,1-1.16,6.07Z"/></g></g></svg>