<svg width="138" height="65" viewBox="0 0 138 65" fill="none" xmlns="http://www.w3.org/2000/svg">
<path d="M16.2422 45.5105L15.4251 47.9904C15.2917 48.397 15.0332 48.7511 14.6866 49.0021C14.34 49.2531 13.923 49.3882 13.495 49.3881H1.00771C0.828786 49.3867 0.653421 49.338 0.499485 49.2468C0.345548 49.1555 0.218542 49.0252 0.131407 48.8689C0.0614417 48.7463 0.0182393 48.6103 0.00464536 48.4699C-0.00894854 48.3294 0.00737455 48.1876 0.0525393 48.0539L4.1602 35.5666C4.18852 35.4845 4.22143 35.4041 4.25879 35.3256C4.42415 34.9795 4.68409 34.6871 5.00856 34.4825C5.33304 34.2778 5.70881 34.1691 6.09245 34.1689H9.37858C9.53945 34.1692 9.69796 34.2076 9.84114 34.2809C9.98432 34.3542 10.1081 34.4604 10.2024 34.5908C10.2966 34.7211 10.3586 34.872 10.3834 35.0309C10.4081 35.1899 10.3949 35.3524 10.3447 35.5053L7.01476 45.6156C6.98887 45.762 6.99532 45.9122 7.03366 46.0558C7.072 46.1994 7.1413 46.3329 7.23671 46.4469C7.33211 46.5609 7.4513 46.6526 7.58591 46.7156C7.72052 46.7787 7.8673 46.8115 8.01593 46.8118H13.0043C13.0636 46.8115 13.1222 46.7988 13.1763 46.7744C13.2305 46.7501 13.2789 46.7147 13.3185 46.6706C13.3581 46.6264 13.3881 46.5745 13.4064 46.518C13.4247 46.4616 13.431 46.402 13.4249 46.3429C13.4105 46.2373 13.3581 46.1405 13.2774 46.0707C13.1967 46.0009 13.0934 45.963 12.9868 45.9639C12.9003 45.9638 12.8151 45.9431 12.7381 45.9037C12.6611 45.8642 12.5946 45.8071 12.544 45.737C12.4933 45.6669 12.46 45.5858 12.4467 45.5004C12.4334 45.4149 12.4406 45.3275 12.4675 45.2454L12.5924 44.8686C12.6612 44.6687 12.7906 44.4952 12.9626 44.3723C13.1346 44.2494 13.3406 44.1832 13.552 44.1829H15.2761C15.4359 44.1836 15.5934 44.2219 15.7357 44.2947C15.878 44.3676 16.0011 44.4729 16.0952 44.6021C16.1892 44.7314 16.2515 44.8809 16.2771 45.0387C16.3026 45.1965 16.2907 45.3581 16.2422 45.5105Z" fill="white"/>
<path d="M35.6567 35.514L31.319 48.6892C31.2518 48.8925 31.1223 49.0693 30.9489 49.1948C30.7754 49.3202 30.5669 49.3879 30.3529 49.3881H26.7053C26.5438 49.3879 26.3847 49.3493 26.2412 49.2755C26.0976 49.2017 25.9737 49.0947 25.8797 48.9634C25.7858 48.8322 25.7244 48.6804 25.7007 48.5208C25.677 48.3611 25.6917 48.198 25.7435 48.0452L28.046 41.2538C28.0962 41.1011 28.1095 40.9386 28.0848 40.7798C28.0601 40.6209 27.998 40.4702 27.9037 40.34C27.8094 40.2097 27.6856 40.1038 27.5424 40.0307C27.3992 39.9576 27.2407 39.9196 27.0799 39.9196H20.8998C20.7926 39.9274 20.6923 39.9754 20.6191 40.054C20.5459 40.1327 20.5052 40.2361 20.5052 40.3436C20.5052 40.451 20.5459 40.5545 20.6191 40.6331C20.6923 40.7118 20.7926 40.7598 20.8998 40.7675H26.6111C26.6904 40.7677 26.7686 40.7866 26.8393 40.8225C26.9101 40.8584 26.9714 40.9104 27.0185 40.9743C27.0655 41.0382 27.097 41.1122 27.1103 41.1904C27.1236 41.2686 27.1185 41.3488 27.0952 41.4247L26.6965 42.6318C26.6296 42.8352 26.5002 43.0123 26.3267 43.1378C26.1532 43.2633 25.9445 43.3308 25.7304 43.3307H24.635C24.4178 43.3265 24.205 43.3921 24.028 43.5179C23.8509 43.6437 23.7189 43.823 23.6513 44.0295L22.1178 48.6892C22.0509 48.8926 21.9215 49.0697 21.748 49.1952C21.5745 49.3207 21.3658 49.3882 21.1517 49.3881H17.1317C16.9709 49.3882 16.8124 49.3501 16.6692 49.2771C16.526 49.204 16.4021 49.098 16.3078 48.9678C16.2135 48.8376 16.1515 48.6868 16.1267 48.528C16.102 48.3691 16.1153 48.2066 16.1655 48.0539L20.2732 35.5666C20.3015 35.4845 20.3344 35.4041 20.3718 35.3256C20.5374 34.9796 20.7973 34.6874 21.1218 34.4828C21.4462 34.2781 21.8219 34.1693 22.2054 34.1689H34.6927C34.8545 34.1691 35.0138 34.2077 35.1576 34.2817C35.3014 34.3557 35.4255 34.4628 35.5197 34.5942C35.6139 34.7257 35.6755 34.8777 35.6993 35.0376C35.7231 35.1975 35.7085 35.3609 35.6567 35.514Z" fill="white"/>
<path d="M52.3503 35.514L51.2089 38.9776C51.1137 39.2686 50.9539 39.5343 50.7414 39.7547C50.5289 39.9751 50.2693 40.1446 49.9821 40.2504L35.6348 45.5477C35.5791 45.5682 35.5284 45.6003 35.4859 45.6417C35.4434 45.6832 35.4101 45.7332 35.3882 45.7883C35.3663 45.8435 35.3562 45.9027 35.3587 45.962C35.3612 46.0213 35.3761 46.0795 35.4026 46.1326C35.4532 46.2281 35.5374 46.3016 35.6389 46.3388C35.7404 46.376 35.8521 46.3743 35.9525 46.3342L41.7755 44.1828H48.0827C48.2435 44.1831 48.402 44.2215 48.5452 44.2948C48.6884 44.3681 48.8122 44.4743 48.9064 44.6047C49.0007 44.7351 49.0627 44.8859 49.0875 45.0449C49.1122 45.2038 49.099 45.3664 49.0488 45.5192L48.236 47.9882C48.1019 48.3948 47.843 48.7487 47.4961 48.9997C47.1491 49.2506 46.7319 49.3858 46.3038 49.3859H33.8165C33.6557 49.386 33.4972 49.3479 33.354 49.2748C33.2108 49.2018 33.0869 49.0958 32.9926 48.9656C32.8983 48.8353 32.8363 48.6846 32.8115 48.5258C32.7868 48.3669 32.8001 48.2044 32.8503 48.0517L33.8143 45.1205C33.9106 44.8281 34.0721 44.5614 34.2865 44.3406C34.5009 44.1197 34.7627 43.9504 35.0521 43.8455L45.8788 39.9021H36.9383C36.7775 39.902 36.6189 39.8636 36.4758 39.7903C36.3326 39.717 36.2089 39.6107 36.1148 39.4803C36.0207 39.3498 35.9589 39.1989 35.9345 39.0399C35.9101 38.8809 35.9238 38.7184 35.9744 38.5657L36.9602 35.5666C37.0946 35.1602 37.3536 34.8064 37.7005 34.5555C38.0473 34.3046 38.4644 34.1693 38.8925 34.1689H51.3798C51.542 34.168 51.7021 34.2059 51.8468 34.2794C51.9915 34.3529 52.1165 34.4599 52.2114 34.5915C52.3063 34.7231 52.3685 34.8755 52.3926 35.036C52.4168 35.1964 52.4023 35.3603 52.3503 35.514Z" fill="white"/>
<path d="M65.7007 34.1777C65.8615 34.1778 66.02 34.2161 66.1632 34.2895C66.3064 34.3628 66.4301 34.4691 66.5242 34.5995C66.6183 34.73 66.6801 34.8809 66.7045 35.0399C66.7289 35.1989 66.7152 35.3614 66.6646 35.514L62.5482 48.0013C62.4141 48.4074 62.1554 48.7608 61.8089 49.0113C61.4624 49.2619 61.0457 49.3968 60.6181 49.3968H57.3451C57.1844 49.3969 57.0259 49.3589 56.8827 49.2858C56.7394 49.2127 56.6156 49.1067 56.5213 48.9765C56.427 48.8463 56.365 48.6956 56.3402 48.5367C56.3155 48.3779 56.3288 48.2154 56.379 48.0627L57.4941 44.6736C57.5444 44.5209 57.5577 44.3584 57.5329 44.1995C57.5082 44.0407 57.4461 43.8899 57.3518 43.7597C57.2575 43.6295 57.1337 43.5235 56.9905 43.4504C56.8473 43.3774 56.6888 43.3393 56.528 43.3394H53.3558C53.0341 43.3392 52.7171 43.2628 52.4307 43.1164C52.1443 42.97 51.8967 42.7578 51.7082 42.4972C51.5196 42.2366 51.3955 41.9351 51.3461 41.6173C51.2966 41.2995 51.3231 40.9744 51.4235 40.6689L53.0973 35.5841C53.2317 35.1777 53.4907 34.8239 53.8375 34.573C54.1844 34.3222 54.6014 34.1869 55.0295 34.1864H58.3157C58.4765 34.1867 58.635 34.2251 58.7782 34.2984C58.9214 34.3717 59.0452 34.4779 59.1394 34.6083C59.2337 34.7387 59.2957 34.8895 59.3205 35.0484C59.3452 35.2074 59.3319 35.37 59.2818 35.5228L58.2937 38.5219C58.1599 38.9287 57.9011 39.2829 57.5541 39.5339C57.2071 39.7848 56.7897 39.9199 56.3615 39.9196H54.2036C54.097 39.9187 53.9936 39.9566 53.913 40.0264C53.8323 40.0962 53.7799 40.193 53.7655 40.2986C53.7593 40.3577 53.7656 40.4173 53.784 40.4737C53.8023 40.5302 53.8322 40.5821 53.8719 40.6263C53.9115 40.6704 53.9599 40.7058 54.014 40.7301C54.0681 40.7545 54.1268 40.7672 54.1861 40.7675H62.4825C62.5413 40.7674 62.5995 40.7551 62.6532 40.7313C62.707 40.7075 62.7553 40.6727 62.7948 40.6292C62.8344 40.5857 62.8645 40.5344 62.8831 40.4786C62.9018 40.4228 62.9086 40.3638 62.9031 40.3052C62.89 40.196 62.8363 40.0958 62.7527 40.0244C62.6691 39.9529 62.5617 39.9156 62.4518 39.9196H60.4363C60.2755 39.9195 60.1169 39.8812 59.9738 39.8078C59.8306 39.7345 59.7069 39.6282 59.6128 39.4978C59.5187 39.3673 59.4569 39.2164 59.4325 39.0574C59.4081 38.8985 59.4218 38.736 59.4724 38.5833L60.4582 35.5841C60.5926 35.1777 60.8516 34.8239 61.1985 34.573C61.5453 34.3222 61.9624 34.1869 62.3905 34.1864L65.7007 34.1777Z" fill="white"/>
<path d="M58.6574 61.0188L57.8403 63.4987C57.7069 63.9054 57.4484 64.2594 57.1018 64.5104C56.7552 64.7614 56.3382 64.8965 55.9102 64.8964H43.4229C43.244 64.8951 43.0686 64.8463 42.9147 64.7551C42.7608 64.6639 42.6338 64.5335 42.5466 64.3772C42.4767 64.2547 42.4335 64.1187 42.4199 63.9782C42.4063 63.8377 42.4226 63.696 42.4678 63.5623L46.5754 51.0859C46.6024 51.0026 46.6353 50.9213 46.674 50.8428C46.8394 50.4966 47.0993 50.2043 47.4238 49.9996C47.7483 49.7949 48.124 49.6862 48.5077 49.686H51.7938C51.9547 49.6863 52.1132 49.7247 52.2564 49.798C52.3995 49.8713 52.5233 49.9775 52.6176 50.1079C52.7118 50.2383 52.7739 50.3891 52.7986 50.548C52.8233 50.707 52.8101 50.8696 52.7599 51.0224L49.4322 61.124C49.4056 61.2705 49.4115 61.421 49.4493 61.565C49.4872 61.709 49.5562 61.8429 49.6515 61.9574C49.7467 62.0719 49.8659 62.164 50.0006 62.2275C50.1353 62.2909 50.2823 62.324 50.4312 62.3245H55.4173C55.4765 62.3245 55.5351 62.3121 55.5892 62.288C55.6433 62.2639 55.6918 62.2288 55.7315 62.1848C55.7711 62.1408 55.8011 62.089 55.8194 62.0326C55.8378 61.9763 55.8441 61.9168 55.8379 61.8579C55.824 61.7518 55.7718 61.6545 55.6911 61.5843C55.6104 61.514 55.5068 61.4758 55.3998 61.4767C55.3134 61.4769 55.2282 61.4565 55.1512 61.4173C55.0742 61.3782 55.0076 61.3213 54.9569 61.2513C54.9062 61.1814 54.8729 61.1004 54.8596 61.015C54.8463 60.9296 54.8535 60.8423 54.8806 60.7603L55.0054 60.3813C55.0724 60.1779 55.2018 60.0008 55.3753 59.8753C55.5488 59.7498 55.7575 59.6823 55.9716 59.6825H57.6957C57.8562 59.6834 58.0142 59.7223 58.1568 59.7959C58.2994 59.8695 58.4226 59.9758 58.5164 60.1061C58.6101 60.2364 58.6718 60.3869 58.6963 60.5455C58.7208 60.7042 58.7075 60.8663 58.6574 61.0188Z" fill="white"/>
<path d="M78.0719 51.0224L73.732 64.1976C73.6655 64.4008 73.5365 64.5778 73.3634 64.7033C73.1903 64.8288 72.9819 64.8964 72.7681 64.8964H69.1205C68.959 64.8963 68.8 64.8577 68.6564 64.7839C68.5129 64.71 68.389 64.603 68.295 64.4718C68.201 64.3405 68.1396 64.1888 68.1159 64.0291C68.0922 63.8694 68.1069 63.7064 68.1587 63.5535L70.4612 56.7622C70.5115 56.6095 70.5248 56.447 70.5 56.2881C70.4753 56.1293 70.4132 55.9785 70.3189 55.8483C70.2246 55.7181 70.1008 55.6121 69.9576 55.539C69.8144 55.466 69.6559 55.4279 69.4951 55.428H63.315C63.2078 55.4357 63.1075 55.4837 63.0344 55.5624C62.9612 55.641 62.9205 55.7445 62.9205 55.8519C62.9205 55.9594 62.9612 56.0628 63.0344 56.1415C63.1075 56.2201 63.2078 56.2681 63.315 56.2758H69.0263C69.1056 56.2761 69.1838 56.295 69.2545 56.3309C69.3253 56.3668 69.3867 56.4188 69.4337 56.4826C69.4808 56.5465 69.5122 56.6205 69.5255 56.6987C69.5389 56.7769 69.5337 56.8572 69.5104 56.9331L69.1117 58.1402C69.0448 58.3436 68.9154 58.5206 68.7419 58.6461C68.5684 58.7716 68.3597 58.8391 68.1456 58.839H67.0502C66.8361 58.8389 66.6274 58.9064 66.4539 59.0319C66.2804 59.1574 66.151 59.3345 66.0841 59.5379L64.5506 64.1976C64.4842 64.4014 64.355 64.5788 64.1813 64.7044C64.0077 64.83 63.7987 64.8972 63.5844 64.8964H59.5469C59.3861 64.8965 59.2276 64.8585 59.0844 64.7854C58.9412 64.7123 58.8173 64.6063 58.723 64.4761C58.6287 64.3459 58.5667 64.1952 58.5419 64.0363C58.5172 63.8775 58.5305 63.715 58.5808 63.5623L62.6884 51.0859C62.7163 51.003 62.7493 50.9217 62.787 50.8428C62.9526 50.4967 63.2126 50.2046 63.537 49.9999C63.8614 49.7953 64.2371 49.6864 64.6207 49.686H77.108C77.2687 49.6867 77.4269 49.7253 77.5698 49.7988C77.7127 49.8722 77.8362 49.9785 77.9302 50.1088C78.0242 50.2391 78.086 50.3898 78.1107 50.5486C78.1353 50.7074 78.122 50.8697 78.0719 51.0224Z" fill="white"/>
<path d="M97.4906 52.3741L93.7948 63.49C93.66 63.8952 93.401 64.2476 93.0546 64.4973C92.7081 64.7471 92.2918 64.8813 91.8648 64.8811H88.5436C88.3828 64.8812 88.2243 64.8431 88.0811 64.7701C87.9379 64.697 87.8141 64.591 87.7198 64.4608C87.6255 64.3306 87.5634 64.1798 87.5387 64.021C87.5139 63.8621 87.5272 63.6997 87.5775 63.5469L89.9545 56.3174C90.0047 56.1647 90.018 56.0023 89.9933 55.8434C89.9685 55.6845 89.9065 55.5338 89.8122 55.4036C89.7179 55.2734 89.594 55.1674 89.4508 55.0943C89.3076 55.0212 89.1491 54.9832 88.9883 54.9833H88.732C88.5182 54.9833 88.3099 55.0507 88.1365 55.1757C87.9631 55.3007 87.8335 55.4771 87.7659 55.6799L86.6705 58.9902C86.603 59.1924 86.4735 59.3683 86.3006 59.4929C86.1276 59.6175 85.9198 59.6846 85.7066 59.6846H85.2487C85.0877 59.6848 84.9289 59.6468 84.7855 59.5736C84.642 59.5004 84.518 59.3942 84.4237 59.2637C84.3293 59.1332 84.2674 58.9821 84.2428 58.823C84.2183 58.6638 84.2319 58.5011 84.2826 58.3483L85.2115 55.531C85.2328 55.4665 85.2378 55.3978 85.2259 55.3309C85.2141 55.2641 85.1858 55.2012 85.1437 55.148C85.1016 55.0948 85.0468 55.0529 84.9845 55.026C84.9221 54.9992 84.8541 54.9883 84.7865 54.9942C84.7048 55.0048 84.6279 55.0382 84.5643 55.0905C84.5008 55.1428 84.4532 55.2119 84.4272 55.29L81.7063 63.49C81.7063 63.5009 81.7063 63.5119 81.6953 63.5228L81.6164 63.7573C81.5074 64.0846 81.298 64.3694 81.0181 64.5711C80.7381 64.7729 80.4017 64.8813 80.0566 64.8811C80.0194 64.8833 79.9821 64.8833 79.9449 64.8811C79.8879 64.8811 76.4594 64.903 76.4594 64.903C76.2979 64.9045 76.1383 64.8675 75.994 64.795C75.8497 64.7225 75.7247 64.6167 75.6294 64.4863C75.5341 64.3559 75.4712 64.2046 75.446 64.0451C75.4208 63.8855 75.434 63.7223 75.4845 63.5688L79.82 50.4046C79.8869 50.2012 80.0164 50.0241 80.1899 49.8986C80.3633 49.7731 80.572 49.7056 80.7861 49.7057H84.4316C84.7296 49.7058 85.0234 49.7766 85.2887 49.9124C85.554 50.0482 85.7832 50.2451 85.9576 50.4868C86.1319 50.7285 86.2463 51.0082 86.2914 51.3028C86.3366 51.5974 86.3111 51.8985 86.217 52.1813V52.1944L86.5829 51.0991C86.7177 50.6939 86.9767 50.3414 87.3232 50.0917C87.6696 49.842 88.0859 49.7077 88.5129 49.7079H95.565C95.8857 49.7089 96.2017 49.7858 96.487 49.9322C96.7724 50.0787 97.019 50.2906 97.2068 50.5506C97.3946 50.8106 97.5182 51.1114 97.5676 51.4283C97.6169 51.7452 97.5905 52.0693 97.4906 52.3741Z" fill="white"/>
<path d="M114.642 51.0224L112.53 57.4413C112.396 57.8479 112.137 58.2019 111.79 58.4528C111.443 58.7038 111.026 58.8389 110.598 58.839H109.284C109.605 58.8392 109.922 58.9156 110.209 59.062C110.495 59.2084 110.743 59.4206 110.931 59.6812C111.12 59.9418 111.244 60.2433 111.293 60.5611C111.343 60.879 111.316 61.204 111.216 61.5095L110.559 63.4987C110.425 63.9054 110.167 64.2594 109.82 64.5104C109.474 64.7614 109.056 64.8965 108.629 64.8964H96.1412C95.9832 64.8964 95.8274 64.8595 95.6862 64.7888C95.5449 64.718 95.4221 64.6153 95.3275 64.4887C95.2329 64.3622 95.169 64.2154 95.1411 64.0599C95.1131 63.9044 95.1217 63.7445 95.1664 63.5929L95.3329 63.0234C95.3998 62.82 95.5292 62.6429 95.7027 62.5174C95.8762 62.3919 96.0849 62.3244 96.299 62.3245H108.331C108.39 62.3245 108.448 62.3121 108.503 62.288C108.557 62.2639 108.605 62.2288 108.645 62.1848C108.684 62.1408 108.714 62.089 108.733 62.0326C108.751 61.9763 108.757 61.9168 108.751 61.8579C108.737 61.7518 108.685 61.6545 108.604 61.5843C108.524 61.514 108.42 61.4758 108.313 61.4767H103.859C103.698 61.4768 103.54 61.4387 103.397 61.3656C103.254 61.2926 103.13 61.1866 103.035 61.0564C102.941 60.9261 102.879 60.7754 102.854 60.6166C102.83 60.4577 102.843 60.2952 102.893 60.1425L103.938 56.9659C104.005 56.7625 104.134 56.5854 104.308 56.46C104.481 56.3345 104.69 56.267 104.904 56.2671H110.405C110.465 56.2671 110.524 56.2546 110.578 56.2304C110.632 56.2062 110.681 56.1709 110.721 56.1267C110.761 56.0825 110.791 56.0304 110.809 55.9738C110.828 55.9173 110.834 55.8574 110.828 55.7982C110.814 55.6926 110.761 55.5958 110.681 55.526C110.6 55.4562 110.497 55.4183 110.39 55.4192H105.027C104.599 55.4191 104.182 55.5542 103.835 55.8052C103.489 56.0562 103.23 56.4103 103.097 56.8169L102.613 58.2869C102.478 58.6931 102.219 59.0466 101.872 59.2971C101.525 59.5477 101.108 59.6825 100.68 59.6825H97.8325C97.6717 59.6825 97.5132 59.6445 97.37 59.5714C97.2268 59.4984 97.103 59.3924 97.0087 59.2621C96.9144 59.1319 96.8523 58.9812 96.8276 58.8223C96.8028 58.6635 96.8161 58.501 96.8664 58.3483L99.2587 51.0837C99.286 51.0013 99.319 50.9208 99.3573 50.8428C99.5223 50.4968 99.7818 50.2045 100.106 49.9998C100.43 49.7951 100.805 49.6863 101.189 49.686H113.676C113.837 49.6858 113.996 49.7239 114.139 49.7971C114.283 49.8703 114.407 49.9765 114.501 50.107C114.595 50.2375 114.657 50.3885 114.682 50.5477C114.706 50.7068 114.693 50.8695 114.642 51.0224Z" fill="white"/>
<path d="M87.4308 35.6805C86.7407 35.5469 86.0419 35.7484 85.3649 35.996C83.8007 36.5678 82.1533 37.5295 81.2748 39.6874L81.5683 39.7378C82.977 41.8212 84.7953 43.1817 86.6947 43.5629C88.4583 43.9178 90.3796 43.3438 91.6852 41.4159L91.9043 41.4334C91.8452 39.935 91.0653 38.8045 90.3182 37.9019C89.4507 36.8657 88.4977 35.8843 87.4308 35.6805ZM89.0388 40.7346C88.9992 40.7686 88.9575 40.8 88.9139 40.8288C88.8664 40.8688 88.8167 40.9061 88.765 40.9405C88.6311 41.0395 88.4726 41.0997 88.3068 41.1144C88.1409 41.129 87.9743 41.0977 87.8251 41.0238C87.7051 40.9497 87.6026 40.8502 87.525 40.7324C87.4933 40.6888 87.464 40.6435 87.4374 40.5966C87.2451 40.242 87.178 39.8329 87.2468 39.4355C87.3892 38.6731 87.9653 38.4102 88.4539 38.2831L88.3312 37.8757L89.1067 38.971C89.3175 39.2241 89.4411 39.5383 89.4594 39.8671C89.4542 40.0331 89.414 40.1961 89.3415 40.3456C89.269 40.4951 89.1659 40.6276 89.0388 40.7346Z" fill="white"/>
<path d="M105.259 35.996C104.58 35.7485 103.883 35.5579 103.193 35.6805C102.122 35.8843 101.173 36.8657 100.308 37.902C99.5588 38.8002 98.7745 39.935 98.7219 41.4335L98.941 41.4159C100.255 43.3438 102.166 43.9178 103.932 43.5629C105.831 43.1817 107.656 41.8212 109.058 39.7378L109.351 39.6874C108.469 37.5317 106.823 36.5678 105.259 35.996ZM103.187 40.5966C103.16 40.6435 103.131 40.6888 103.099 40.7324C103.021 40.8498 102.919 40.9491 102.799 41.0238C102.65 41.0977 102.483 41.1291 102.317 41.1144C102.151 41.0997 101.993 41.0395 101.859 40.9405C101.807 40.9067 101.757 40.8693 101.71 40.8288C101.667 40.8001 101.625 40.7686 101.585 40.7346C101.458 40.6279 101.355 40.4957 101.283 40.3466C101.211 40.1976 101.17 40.0349 101.165 39.8693C101.183 39.5405 101.307 39.2263 101.517 38.9732L102.293 37.8779L102.17 38.2853C102.657 38.4124 103.233 38.6753 103.377 39.4377C103.444 39.8344 103.377 40.2422 103.187 40.5966Z" fill="white"/>
<path d="M115.177 18.643C115.058 18.2356 114.931 17.8281 114.782 17.4162C113.652 14.1783 111.753 11.2887 109.086 8.74739C108.966 8.97961 108.769 9.44186 108.488 10.1341C108.298 10.6145 108.069 11.0783 107.803 11.5209C107.218 12.4877 106.301 13.0551 105.049 13.2231C103.88 9.58645 102.81 7.04445 101.837 5.59709C100.126 3.11715 97.6799 1.52009 94.5004 0.805908C91.9753 1.91025 89.8356 3.74038 88.3531 6.06372C87.3717 7.55343 86.2398 9.93771 84.9575 13.2165C83.827 13.0698 82.9858 12.441 82.4315 11.3259C81.7305 9.83474 81.2405 8.97304 80.9615 8.74082C78.5746 11.2238 76.7585 14.198 75.6402 17.4556C75.3843 18.1825 75.1649 18.9217 74.983 19.6705C74.5364 19.3132 74.0608 18.9937 73.5612 18.7153C73.5612 18.7153 62.7235 11.5406 50.6612 20.9433C50.6612 20.9433 58.2346 34.6224 68.3559 32.4251C68.6445 33.8387 69.1036 35.2121 69.723 36.5152C71.9239 41.1392 75.6701 44.3019 80.9615 46.0034C79.1213 43.522 78.326 40.3593 78.5758 36.5152C78.8562 32.4594 80.3101 29.9911 82.9376 29.1105C82.7244 31.548 83.3976 33.1546 84.9575 33.9301C86.5786 33.2992 87.3271 32.0161 87.203 30.081C87.019 27.0139 86.9467 25.4168 86.9839 25.2898C87.8734 21.8883 90.7213 19.4733 95.5279 18.045C98.9235 18.8599 101.233 20.9499 102.455 24.3149C102.985 25.8548 103.386 27.4361 103.653 29.0425C104.17 31.8905 104.473 33.527 104.571 33.9301C105.976 33.8622 106.845 33.2028 107.183 31.9409C107.827 29.7779 108.133 28.7176 108.101 28.7599C110.426 30.6922 111.667 33.4671 111.825 37.0848C111.971 40.59 111.069 43.5629 109.119 46.0034C114.443 44.5341 118.22 41.5079 120.452 36.9249C121.11 35.5667 121.593 34.1305 121.889 32.6507C131.206 33.2181 138 20.9455 138 20.9455C126.573 12.062 116.272 17.9661 115.177 18.643Z" fill="white"/>
</svg>
