<?xml version="1.0" standalone="no"?>
<!DOCTYPE svg PUBLIC "-//W3C//DTD SVG 20010904//EN"
 "http://www.w3.org/TR/2001/REC-SVG-20010904/DTD/svg10.dtd">
<svg version="1.0" xmlns="http://www.w3.org/2000/svg"
 width="1392.000000pt" height="1392.000000pt" viewBox="0 0 1392.000000 1392.000000"
 preserveAspectRatio="xMidYMid meet">
<metadata>
Created by potrace 1.14, written by Peter Selinger 2001-2017
</metadata>
<g transform="translate(0.000000,1392.000000) scale(0.100000,-0.100000)"
fill="#000000" stroke="none">
<path d="M6860 10444 c-57 -31 -128 -71 -157 -90 -29 -19 -57 -34 -62 -34 -5
0 -11 -4 -13 -8 -1 -5 -32 -30 -68 -55 -147 -106 -317 -270 -415 -402 -16 -22
-33 -41 -37 -43 -4 -2 -8 -10 -8 -18 0 -8 -4 -14 -10 -14 -5 0 -10 -6 -10 -14
0 -8 -4 -16 -8 -18 -4 -1 -32 -43 -62 -93 -30 -49 -57 -92 -60 -95 -27 -26
-223 -430 -309 -635 -23 -55 -47 -111 -53 -125 -6 -14 -18 -41 -26 -60 -8 -19
-19 -43 -23 -52 -5 -10 -9 -22 -9 -27 0 -5 -8 -26 -17 -47 -9 -22 -17 -41 -18
-44 -19 -66 -34 -71 -126 -40 -72 25 -124 56 -176 107 -61 60 -85 98 -161 254
-77 159 -135 263 -164 293 -10 11 -18 23 -18 28 0 32 -71 -33 -165 -150 -11
-13 -31 -37 -45 -52 -14 -16 -34 -40 -45 -56 -11 -15 -25 -32 -30 -38 -57 -62
-335 -494 -335 -521 0 -2 -14 -28 -31 -57 -17 -29 -31 -54 -30 -55 0 -2 -15
-37 -35 -79 -19 -42 -51 -116 -70 -163 -19 -47 -39 -95 -44 -106 -5 -11 -14
-38 -21 -60 -6 -22 -16 -46 -22 -52 -5 -7 -6 -13 -2 -13 4 0 0 -11 -9 -25 -9
-14 -14 -25 -12 -25 3 0 -2 -17 -10 -37 -9 -20 -17 -44 -19 -52 -2 -9 -13 -53
-25 -98 -17 -59 -26 -80 -36 -76 -8 3 -14 9 -14 13 0 13 -189 134 -306 197
-96 51 -148 76 -269 128 -58 25 -221 81 -350 119 -105 31 -370 83 -460 91 -22
1 -76 6 -120 11 -101 10 -384 10 -495 0 -47 -4 -105 -9 -130 -11 -25 -2 -45
-4 -45 -5 0 -1 -13 -4 -30 -6 -16 -3 -52 -9 -80 -14 -27 -6 -63 -12 -80 -15
-30 -4 -126 -28 -240 -59 -59 -17 -218 -70 -265 -89 -14 -6 -27 -11 -30 -11
-15 -3 -160 -68 -262 -118 -64 -32 -121 -58 -126 -58 -6 0 -12 -4 -14 -8 -2
-4 -30 -23 -63 -41 -33 -19 -78 -45 -100 -59 -22 -14 -42 -24 -44 -23 -2 2 -7
-1 -10 -6 -3 -4 -33 -26 -66 -48 -33 -22 -106 -73 -162 -114 l-102 -74 20 -36
c11 -20 28 -49 39 -66 11 -16 23 -37 27 -45 3 -8 9 -17 12 -20 4 -3 27 -36 51
-75 25 -38 48 -74 53 -80 4 -5 36 -49 70 -96 102 -143 196 -261 209 -267 4 -2
8 -8 8 -13 0 -5 15 -24 33 -43 17 -18 48 -53 67 -77 44 -57 384 -396 430 -431
19 -14 49 -39 65 -54 17 -16 46 -40 65 -54 40 -28 44 -31 85 -64 36 -28 212
-143 275 -179 158 -91 435 -204 537 -220 17 -3 36 -8 41 -11 5 -3 27 -8 48
-11 22 -3 50 -8 64 -10 143 -25 424 -26 540 -1 14 3 37 8 52 11 23 5 27 2 38
-29 6 -20 9 -40 5 -46 -3 -5 -2 -10 3 -10 5 0 9 -6 9 -12 1 -44 80 -290 130
-406 67 -157 242 -481 265 -490 4 -2 8 -8 8 -14 0 -6 14 -27 30 -48 17 -21 30
-42 30 -48 0 -6 3 -12 8 -14 4 -1 31 -34 61 -72 29 -38 63 -80 75 -95 34 -42
247 -253 296 -293 25 -21 52 -44 60 -51 8 -7 33 -27 55 -43 22 -16 42 -32 45
-35 12 -14 241 -159 300 -190 36 -19 67 -36 70 -39 10 -11 270 -130 283 -130
7 0 17 -4 22 -9 6 -4 24 -13 40 -19 17 -5 67 -24 113 -40 45 -17 84 -26 87
-22 3 5 1 10 -4 12 -26 9 -167 267 -213 388 -14 36 -29 74 -33 85 -5 11 -9 22
-10 25 0 3 -8 30 -18 60 -70 236 -100 458 -101 745 0 126 9 294 18 345 3 14 7
47 11 75 3 27 11 71 17 98 5 27 11 56 13 65 2 9 4 17 5 17 2 0 7 19 15 58 17
84 104 278 166 369 66 97 184 210 269 257 58 32 141 71 163 76 l24 7 -1 -94
c-5 -293 91 -518 271 -634 51 -33 52 -33 90 -18 21 9 45 22 53 29 8 8 18 13
21 12 8 -3 76 52 115 93 30 32 93 140 95 165 1 6 6 21 11 35 22 57 26 155 13
340 -4 63 -9 138 -11 165 -17 256 -22 501 -11 540 33 121 148 361 188 395 3 3
10 12 15 21 29 53 166 198 254 269 30 25 57 47 60 51 17 20 203 133 305 184
125 64 335 150 415 170 3 1 12 4 20 8 60 24 102 27 163 12 34 -10 71 -21 82
-25 11 -4 47 -18 80 -31 71 -26 219 -100 223 -111 2 -4 9 -8 16 -8 7 0 26 -10
43 -22 16 -13 43 -32 58 -43 197 -140 383 -387 487 -645 16 -41 34 -84 38 -95
23 -52 128 -428 145 -515 6 -33 11 -56 24 -110 5 -25 13 -61 16 -80 5 -31 32
-176 40 -221 2 -9 6 -32 9 -50 3 -19 8 -45 10 -59 3 -14 10 -52 15 -85 6 -33
13 -71 16 -85 3 -14 8 -41 11 -60 2 -19 9 -57 15 -85 16 -83 19 -99 25 -135
11 -58 12 -58 91 -44 140 24 240 94 302 212 18 34 30 62 27 62 -2 0 0 15 5 33
6 17 12 39 14 47 2 8 4 15 5 15 1 0 3 7 5 15 19 74 81 284 92 310 3 8 8 24 10
35 2 11 6 27 10 35 3 8 7 21 9 28 5 26 11 22 85 -51 141 -138 226 -253 318
-432 17 -33 31 -63 31 -66 0 -4 10 -29 22 -56 25 -56 22 -49 32 -88 4 -16 11
-39 16 -50 23 -56 61 -244 76 -385 15 -130 7 -508 -12 -603 -2 -12 -7 -44 -10
-72 -4 -27 -8 -53 -11 -58 -2 -4 -6 -19 -9 -32 -8 -47 -13 -70 -33 -140 -19
-71 -54 -174 -70 -210 -5 -11 -19 -42 -32 -70 -13 -27 -23 -52 -24 -55 -1 -7
-46 -89 -62 -115 -7 -11 -15 -27 -19 -35 -12 -25 -86 -134 -107 -157 -10 -12
-18 -26 -16 -31 4 -9 259 72 326 103 19 9 41 18 47 20 29 6 250 114 360 175
121 67 257 163 401 282 60 50 235 226 280 283 22 28 43 52 46 55 4 3 25 30 47
60 23 30 45 60 49 65 57 69 201 328 276 495 38 84 102 264 113 317 2 12 8 33
13 45 5 13 9 28 9 33 1 6 11 51 23 100 l22 91 126 1 c126 2 174 6 221 17 14 3
41 8 60 11 111 16 354 89 388 117 6 6 12 8 12 5 0 -3 27 7 59 24 33 16 62 29
65 29 3 0 22 10 43 22 20 12 44 23 52 25 8 1 17 6 20 11 3 5 29 22 56 37 69
39 237 153 317 218 134 107 165 135 328 297 155 154 207 209 287 306 18 21 42
50 54 64 11 14 30 38 42 53 12 15 30 38 41 50 52 62 296 409 296 422 0 2 13
23 28 47 16 24 38 59 50 79 l21 36 -67 48 c-37 27 -69 52 -72 55 -3 3 -12 10
-21 15 -9 6 -50 34 -92 63 -42 28 -80 52 -86 52 -5 0 -11 4 -13 8 -4 10 -176
112 -188 112 -5 0 -10 3 -12 8 -3 7 -199 105 -273 137 -22 9 -48 21 -57 26
-10 5 -22 9 -28 9 -6 0 -30 9 -54 21 -25 11 -51 22 -58 23 -7 2 -20 6 -28 10
-24 10 -173 57 -200 63 -34 7 -43 9 -60 16 -13 5 -49 13 -140 33 -14 3 -38 7
-55 9 -16 2 -30 4 -30 5 0 2 -37 9 -85 15 -25 4 -55 8 -68 10 -85 14 -183 19
-367 19 -217 1 -352 -8 -470 -28 -16 -3 -48 -8 -70 -11 -45 -7 -241 -50 -295
-65 -19 -5 -39 -10 -45 -11 -5 -1 -34 -10 -62 -20 -29 -10 -53 -15 -53 -12 0
3 -6 1 -12 -4 -7 -6 -38 -18 -68 -28 -30 -10 -98 -36 -150 -58 -52 -22 -110
-46 -127 -54 -18 -7 -36 -13 -40 -14 -5 0 -15 -6 -23 -13 -22 -18 -129 -71
-133 -65 -2 2 -14 36 -26 74 -12 39 -29 84 -36 100 -8 17 -21 53 -30 80 -16
49 -27 75 -62 153 -10 20 -18 39 -18 42 -2 19 -119 244 -174 335 -149 249
-302 448 -530 686 -84 89 -95 97 -107 81 -7 -9 -10 -20 -8 -24 3 -5 0 -8 -5
-8 -6 0 -10 -3 -9 -7 1 -5 -8 -30 -20 -57 -12 -27 -22 -51 -22 -53 0 -2 -11
-29 -25 -59 -14 -30 -25 -56 -25 -59 0 -10 -84 -160 -109 -195 -33 -47 -132
-140 -148 -140 -7 0 -13 -4 -13 -8 0 -13 -144 -68 -198 -76 -22 -3 -45 -6 -51
-8 -8 -2 -20 20 -31 52 -46 136 -110 322 -140 400 -67 179 -114 295 -123 308
-5 6 -6 12 -3 12 4 0 0 12 -8 28 -8 15 -37 74 -64 132 -27 58 -67 136 -90 174
-23 37 -42 70 -42 72 0 6 -100 138 -143 188 -73 86 -230 236 -246 236 -5 0
-15 7 -22 17 -19 23 -185 132 -229 150 -8 3 -22 12 -32 20 -9 8 -22 16 -30 17
-7 2 -49 19 -92 39 -92 43 -309 114 -369 122 -37 4 -55 -3 -147 -51z"/>
<path d="M5738 4935 c-2 -2 -21 -6 -44 -9 -22 -4 -72 -16 -110 -27 -38 -11
-73 -21 -79 -23 -5 -1 -36 -15 -69 -29 -32 -15 -62 -27 -67 -27 -5 0 -9 -4 -9
-10 0 -5 -6 -10 -13 -10 -8 0 -42 -18 -76 -40 -34 -22 -64 -40 -66 -40 -3 0
-13 -8 -23 -17 -10 -10 -33 -32 -52 -49 -33 -28 -94 -94 -131 -141 -19 -24
-89 -145 -106 -185 -11 -25 -10 -29 12 -40 13 -7 52 -51 86 -98 85 -115 236
-262 346 -338 50 -34 102 -66 115 -72 12 -5 30 -14 38 -19 8 -5 29 -14 45 -21
17 -7 37 -16 46 -20 14 -7 52 -19 114 -36 36 -10 65 -15 100 -19 22 -2 40 -5
40 -6 0 -10 150 -1 219 12 173 35 320 130 450 291 21 26 42 46 46 43 12 -7 21
26 15 55 -3 14 -8 40 -11 59 -21 125 -140 351 -230 436 -5 6 -29 35 -52 65
-96 127 -210 228 -314 281 -50 25 -75 31 -139 34 -43 1 -79 1 -81 0z m339
-427 c79 -111 87 -124 110 -188 30 -83 19 -108 -101 -219 -19 -18 -39 -25 -79
-27 -49 -2 -56 1 -94 35 -56 50 -82 113 -79 188 6 113 33 160 117 202 82 41
79 39 69 66 -5 14 -8 25 -6 25 2 0 30 -37 63 -82z"/>
<path d="M8357 4929 c-9 -6 -17 -7 -17 -3 0 3 -7 1 -15 -6 -8 -7 -15 -9 -15
-5 0 11 -127 -62 -168 -97 -80 -69 -234 -234 -290 -311 -102 -140 -170 -285
-188 -402 -11 -67 -10 -80 3 -78 7 2 26 -16 44 -40 50 -65 140 -150 205 -194
53 -35 110 -65 124 -65 3 0 10 -3 15 -8 10 -8 78 -29 125 -38 42 -8 222 -7
275 1 60 10 221 62 252 83 12 8 29 14 38 14 8 0 15 5 15 10 0 6 4 10 10 10 13
0 114 62 118 72 2 4 9 8 16 8 6 0 19 8 27 18 9 9 29 26 44 37 28 20 165 155
198 194 9 12 42 55 72 96 31 41 62 75 70 75 25 0 26 17 3 67 -12 26 -22 50
-22 53 -1 3 -22 37 -47 75 -56 84 -208 235 -237 235 -5 0 -15 7 -22 15 -14 17
-141 83 -230 119 -132 54 -357 90 -403 65z m-124 -373 c-4 -19 0 -24 24 -29
75 -16 146 -92 159 -172 6 -41 -23 -185 -37 -185 -5 0 -9 -6 -9 -12 0 -21 -80
-82 -111 -86 -45 -5 -96 16 -135 54 -19 19 -34 37 -34 40 0 3 -9 17 -20 31
-32 41 -22 130 21 193 19 28 37 50 42 50 4 0 7 5 7 11 0 6 18 34 40 61 22 28
40 55 40 59 0 5 4 9 9 9 4 0 6 -11 4 -24z"/>
</g>
</svg>
